<svg fill="none" height="100%" width="100%" viewBox="0 0 500 500" xmlns:xlink="http://www.w3.org/1999/xlink" xmlns="http://www.w3.org/2000/svg"><g opacity="0" id="i0"><animate repeatCount="indefinite" attributeName="opacity" dur="3.367s" begin="0s" fill="freeze" values="0; 1; 1" keyTimes="0; 0.19802; 1" keySplines="0 0 1 1; 0 0 1 1" calcMode="spline" /><g transform="translate(250,450)"><animateTransform repeatCount="indefinite" type="translate" attributeName="transform" dur="3.367s" begin="0s" calcMode="spline" values="250 450; 250 250; 250 250" keyTimes="0; 0.19802; 1" keySplines="0.333 0 0 1; 0 0 1 1" fill="freeze" /><g transform="scale(1,1) translate(0,0)"><g id="i0"><path fill="#efdce6" d="M145.722,-159.6C145.722,-159.6,-145.722,-159.6,-145.722,-159.6C-153.355,-159.6,-159.6,-153.355,-159.6,-145.722C-159.6,-145.722,-159.6,145.722,-159.6,145.722C-159.6,153.355,-153.355,159.6,-145.722,159.6C-145.722,159.6,145.722,159.6,145.722,159.6C153.355,159.6,159.6,153.355,159.6,145.722C159.6,145.722,159.6,-145.722,159.6,-145.722C159.6,-153.355,153.355,-159.6,145.722,-159.6Z" /></g></g></g></g><g id="i0"><g transform="translate(250,450)"><animateTransform repeatCount="indefinite" type="translate" attributeName="transform" dur="3.367s" begin="0s" calcMode="spline" values="250 450; 250 250; 250 250" keyTimes="0; 0.19802; 1" keySplines="0.333 0 0 1; 0 0 1 1" fill="freeze" /><g transform="scale(1,1) translate(0,0)"><g opacity="0" id="i1"><animate repeatCount="indefinite" attributeName="opacity" dur="3.367s" begin="0s" fill="freeze" values="0; 1; 1" keyTimes="0; 0.19802; 1" keySplines="0 0 1 1; 0 0 1 1" calcMode="spline" /><g transform="translate(-97.148,-124.904) scale(1,1) translate(-152.852,-125.096)"><g id="i2" transform="matrix(1,0,0,1,180.609,125.096)"><rect height="13.878" width="13.878" y="-6.939" x="-6.939" fill="#ffffff" /></g><g id="i3" transform="matrix(1,0,0,1,152.852,125.096)"><rect height="13.878" width="13.878" y="-6.939" x="-6.939" fill="#ffffff" /></g><g id="i4" transform="matrix(1,0,0,1,125.096,125.096)"><rect height="13.878" width="13.878" y="-6.939" x="-6.939" fill="#ffffff" /></g></g></g></g></g></g><g id="i0"><g transform="translate(250,450)"><animateTransform repeatCount="indefinite" type="translate" attributeName="transform" dur="3.367s" begin="0s" calcMode="spline" values="250 450; 250 250; 250 250" keyTimes="0; 0.19802; 1" keySplines="0.333 0 0 1; 0 0 1 1" fill="freeze" /><g transform="scale(1,1) translate(0,0)"><g opacity="0" id="i5"><animate repeatCount="indefinite" attributeName="opacity" dur="3.367s" begin="0s" fill="freeze" values="0; 1; 1" keyTimes="0; 0.19802; 1" keySplines="0 0 1 1; 0 0 1 1" calcMode="spline" /><g transform="translate(0,-55.513) scale(1,1) translate(-250,-194.487)"><g id="i2" transform="matrix(1,0,0,1,250,194.487)"><path fill="#ed509e" d="M0,-41.635C-22.899,-41.635,-41.635,-22.899,-41.635,0C-41.635,22.899,-22.899,41.635,0,41.635C22.899,41.635,41.635,22.899,41.635,0C41.635,-23.593,22.899,-41.635,0,-41.635Z" /></g><g id="i3" transform="matrix(1,0,0,1,250,188.936)"><path fill="#142b0f" d="M0,-16.654C9.198,-16.654,16.654,-9.198,16.654,0C16.654,9.198,9.198,16.654,0,16.654C-9.198,16.654,-16.654,9.198,-16.654,0C-16.654,-9.198,-9.198,-16.654,0,-16.654Z" /></g><g id="i4" transform="matrix(1,0,0,1,250,223.284)"><path fill="#142b0f" d="M0,12.837C10.409,12.837,19.43,9.368,27.063,2.429C24.287,-8.674,13.184,-12.837,0,-12.837C-13.184,-12.837,-24.287,-8.674,-27.063,2.429C-20.124,9.368,-10.409,12.837,0,12.837Z" /></g></g></g></g></g></g><g opacity="0" visibility="hidden" id="i6"><animate repeatCount="indefinite" begin="0s" calcMode="discrete" dur="3.367s" values="hidden; visible; visible" keyTimes="0; 0.050005; 1" attributeName="visibility" /><animate repeatCount="indefinite" attributeName="opacity" dur="3.367s" begin="0s" fill="freeze" values="0; 0; 1; 1" keyTimes="0; 0.049505; 0.247525; 1" keySplines="0 0 1 1; 0.333 0 0 1; 0 0 1 1" calcMode="spline" /><g transform="translate(250,370.817)"><animateTransform repeatCount="indefinite" type="translate" attributeName="transform" dur="3.367s" begin="0s" calcMode="spline" values="250 370.817; 250 370.817; 250 270.817; 250 270.817" keyTimes="0; 0.049505; 0.247525; 1" keySplines="0 0 1 1; 0.333 0 0 1; 0 0 1 1" fill="freeze" /><g transform="scale(1,1) translate(0,0)"><g id="i6"><rect height="27.757" width="152.661" y="-13.879" x="-76.331" fill="#ffffff" /></g></g></g></g><g opacity="0" visibility="hidden" id="i7"><animate repeatCount="indefinite" begin="0s" calcMode="discrete" dur="3.367s" values="hidden; visible; visible" keyTimes="0; 0.069007; 1" attributeName="visibility" /><animate repeatCount="indefinite" attributeName="opacity" dur="3.367s" begin="0s" fill="freeze" values="0; 0; 1; 1" keyTimes="0; 0.069307; 0.267327; 1" keySplines="0 0 1 1; 0.333 0 0 1; 0 0 1 1" calcMode="spline" /><g transform="translate(250,412.452)"><animateTransform repeatCount="indefinite" type="translate" attributeName="transform" dur="3.367s" begin="0s" calcMode="spline" values="250 412.452; 250 412.452; 250 312.452; 250 312.452" keyTimes="0; 0.069307; 0.267327; 1" keySplines="0 0 1 1; 0.333 0 0 1; 0 0 1 1" fill="freeze" /><g transform="scale(1,1) translate(0,0)"><g id="i7"><path fill="#ffffff" d="M-76.33,-13.878C-76.33,-13.878,76.33,-13.878,76.33,-13.878C76.33,-13.878,76.33,13.878,76.33,13.878C76.33,13.878,-76.33,13.878,-76.33,13.878C-76.33,13.878,-76.33,-13.878,-76.33,-13.878Z" /></g></g></g></g><g opacity="0" visibility="hidden" id="i8"><animate repeatCount="indefinite" begin="0s" calcMode="discrete" dur="3.367s" values="hidden; visible; visible" keyTimes="0; 0.089009; 1" attributeName="visibility" /><animate repeatCount="indefinite" attributeName="opacity" dur="3.367s" begin="0s" fill="freeze" values="0; 0; 1; 1" keyTimes="0; 0.118812; 0.287129; 1" keySplines="0 0 1 1; 0.333 0 0 1; 0 0 1 1" calcMode="spline" /><g transform="translate(250,461.026)"><animateTransform repeatCount="indefinite" type="translate" attributeName="transform" dur="3.367s" begin="0s" calcMode="spline" values="250 461.026; 250 461.026; 250 361.026; 250 361.026; 250 366.026; 250 361.026; 250 361.026" keyTimes="0; 0.089109; 0.287128; 0.683168; 0.732673; 0.782178; 1" keySplines="0 0 1 1; 0.333 0 0 1; 0 0 1 1; 0.333 0 0.667 1; 0.333 0 0.667 1; 0 0 1 1" fill="freeze" /><g transform="scale(1,1)"><animateTransform repeatCount="indefinite" type="scale" attributeName="transform" dur="3.367s" begin="0s" calcMode="spline" values="1 1; 1 1; 0.95 0.95; 1 1; 1 1" keyTimes="0; 0.683168; 0.732673; 0.782178; 1" keySplines="0 0 1 1; 0.333 0 0.667 1; 0.333 0 0.667 1; 0 0 1 1" fill="freeze" /><g transform="translate(0,0)"><g id="i8"><path fill="#ed509e" d="M34.696,13.878C34.696,13.878,-34.696,13.878,-34.696,13.878C-42.329,13.878,-48.574,7.633,-48.574,0C-48.574,0,-48.574,0,-48.574,0C-48.574,-7.633,-42.329,-13.878,-34.696,-13.878C-34.696,-13.878,34.696,-13.878,34.696,-13.878C42.329,-13.878,48.574,-7.633,48.574,0C48.574,0,48.574,0,48.574,0C48.574,7.633,42.329,13.878,34.696,13.878Z" /></g></g></g></g></g><g opacity="0" visibility="hidden" id="i9"><animate repeatCount="indefinite" begin="0s" calcMode="discrete" dur="3.367s" values="hidden; visible; visible" keyTimes="0; 0.297029; 1" attributeName="visibility" /><animate repeatCount="indefinite" attributeName="opacity" dur="3.367s" begin="0s" fill="freeze" values="0; 1; 1" keyTimes="0; 0.19802; 1" keySplines="0 0 1 1; 0 0 1 1" calcMode="spline" /><g transform="translate(183.429,270.817)"><g transform="scale(0,1)"><animateTransform repeatCount="indefinite" type="scale" attributeName="transform" dur="3.367s" begin="0s" calcMode="spline" values="0 1; 0 1; 1 1; 1 1" keyTimes="0; 0.29703; 0.594059; 1" keySplines="0 0 1 1; 0.333 0 0 1; 0 0 1 1" fill="freeze" /><g transform="translate(55.929,0)"><g id="i9"><rect height="9.6" width="111.857" y="-4.8" x="-55.928" fill="#ed509e" /></g></g></g></g></g><g transform="matrix(1,0,0,1,0,0)" visibility="hidden" id="i10"><animate repeatCount="indefinite" begin="0s" calcMode="discrete" dur="3.367s" values="hidden; visible; visible" keyTimes="0; 0.495049; 1" attributeName="visibility" /><g opacity="0"><animate repeatCount="indefinite" attributeName="opacity" dur="3.367s" begin="0s" fill="freeze" values="0; 0; 1; 1; 1; 0" keyTimes="0; 0.485149; 0.495049; 0.693068; 1; 1" keySplines="0 0 1 1; 0 0 1 1; 0 0 1 1; 0 0 1 1; 0 0 1 1" calcMode="spline" /><g id="i11" transform="translate(187.874,313.27) translate(-187.874,-313.27)"><g id="i11" transform="matrix(1,0,0,1,187.874,313.27)"><path fill="#ed509e" d="M2.603,-3.021C2.603,-3.021,0.568,-0.343,0.568,-0.343C0.568,-0.343,0.568,-0.3,0.568,-0.3C0.568,-0.3,3.803,-0.729,3.803,-0.729C3.803,-0.729,3.803,0.729,3.803,0.729C3.803,0.729,0.568,0.343,0.568,0.343C0.568,0.343,0.568,0.386,0.568,0.386C0.568,0.386,2.625,2.956,2.625,2.956C2.625,2.956,1.275,3.728,1.275,3.728C1.275,3.728,-0.011,0.729,-0.011,0.729C-0.011,0.729,-0.054,0.729,-0.054,0.729C-0.054,0.729,-1.446,3.749,-1.446,3.749C-1.446,3.749,-2.667,2.978,-2.667,2.978C-2.667,2.978,-0.632,0.364,-0.632,0.364C-0.632,0.364,-0.632,0.321,-0.632,0.321C-0.632,0.321,-3.803,0.729,-3.803,0.729C-3.803,0.729,-3.803,-0.729,-3.803,-0.729C-3.803,-0.729,-0.653,-0.321,-0.653,-0.321C-0.653,-0.321,-0.653,-0.364,-0.653,-0.364C-0.653,-0.364,-2.667,-2.978,-2.667,-2.978C-2.667,-2.978,-1.36,-3.728,-1.36,-3.728C-1.36,-3.728,-0.032,-0.75,-0.032,-0.75C-0.032,-0.75,0.011,-0.75,0.011,-0.75C0.011,-0.75,1.317,-3.749,1.317,-3.749C1.317,-3.749,2.603,-3.021,2.603,-3.021Z" /></g></g></g><g opacity="0"><animate repeatCount="indefinite" attributeName="opacity" dur="3.367s" begin="0s" fill="freeze" values="0; 0; 1; 1; 1; 0" keyTimes="0; 0.50495; 0.514851; 0.71287; 1; 1" keySplines="0 0 1 1; 0 0 1 1; 0 0 1 1; 0 0 1 1; 0 0 1 1" calcMode="spline" /><g id="i12" transform="translate(196.767,313.27) translate(-196.767,-313.27)"><g id="i12" transform="matrix(1,0,0,1,196.767,313.27)"><path fill="#ed509e" d="M2.603,-3.021C2.603,-3.021,0.568,-0.343,0.568,-0.343C0.568,-0.343,0.568,-0.3,0.568,-0.3C0.568,-0.3,3.803,-0.729,3.803,-0.729C3.803,-0.729,3.803,0.729,3.803,0.729C3.803,0.729,0.568,0.343,0.568,0.343C0.568,0.343,0.568,0.386,0.568,0.386C0.568,0.386,2.625,2.956,2.625,2.956C2.625,2.956,1.275,3.728,1.275,3.728C1.275,3.728,-0.011,0.729,-0.011,0.729C-0.011,0.729,-0.054,0.729,-0.054,0.729C-0.054,0.729,-1.446,3.749,-1.446,3.749C-1.446,3.749,-2.667,2.978,-2.667,2.978C-2.667,2.978,-0.632,0.364,-0.632,0.364C-0.632,0.364,-0.632,0.321,-0.632,0.321C-0.632,0.321,-3.803,0.729,-3.803,0.729C-3.803,0.729,-3.803,-0.729,-3.803,-0.729C-3.803,-0.729,-0.653,-0.321,-0.653,-0.321C-0.653,-0.321,-0.653,-0.364,-0.653,-0.364C-0.653,-0.364,-2.667,-2.978,-2.667,-2.978C-2.667,-2.978,-1.36,-3.728,-1.36,-3.728C-1.36,-3.728,-0.032,-0.75,-0.032,-0.75C-0.032,-0.75,0.011,-0.75,0.011,-0.75C0.011,-0.75,1.317,-3.749,1.317,-3.749C1.317,-3.749,2.603,-3.021,2.603,-3.021Z" /></g></g></g><g opacity="0"><animate repeatCount="indefinite" attributeName="opacity" dur="3.367s" begin="0s" fill="freeze" values="0; 0; 1; 1; 1; 0" keyTimes="0; 0.524752; 0.534653; 0.732672; 1; 1" keySplines="0 0 1 1; 0 0 1 1; 0 0 1 1; 0 0 1 1; 0 0 1 1" calcMode="spline" /><g id="i13" transform="translate(205.66,313.27) translate(-205.66,-313.27)"><g id="i13" transform="matrix(1,0,0,1,205.66,313.27)"><path fill="#ed509e" d="M2.603,-3.021C2.603,-3.021,0.568,-0.343,0.568,-0.343C0.568,-0.343,0.568,-0.3,0.568,-0.3C0.568,-0.3,3.803,-0.729,3.803,-0.729C3.803,-0.729,3.803,0.729,3.803,0.729C3.803,0.729,0.568,0.343,0.568,0.343C0.568,0.343,0.568,0.386,0.568,0.386C0.568,0.386,2.625,2.956,2.625,2.956C2.625,2.956,1.275,3.728,1.275,3.728C1.275,3.728,-0.011,0.729,-0.011,0.729C-0.011,0.729,-0.054,0.729,-0.054,0.729C-0.054,0.729,-1.446,3.749,-1.446,3.749C-1.446,3.749,-2.667,2.978,-2.667,2.978C-2.667,2.978,-0.632,0.364,-0.632,0.364C-0.632,0.364,-0.632,0.321,-0.632,0.321C-0.632,0.321,-3.803,0.729,-3.803,0.729C-3.803,0.729,-3.803,-0.729,-3.803,-0.729C-3.803,-0.729,-0.653,-0.321,-0.653,-0.321C-0.653,-0.321,-0.653,-0.364,-0.653,-0.364C-0.653,-0.364,-2.667,-2.978,-2.667,-2.978C-2.667,-2.978,-1.36,-3.728,-1.36,-3.728C-1.36,-3.728,-0.032,-0.75,-0.032,-0.75C-0.032,-0.75,0.011,-0.75,0.011,-0.75C0.011,-0.75,1.317,-3.749,1.317,-3.749C1.317,-3.749,2.603,-3.021,2.603,-3.021Z" /></g></g></g><g opacity="0"><animate repeatCount="indefinite" attributeName="opacity" dur="3.367s" begin="0s" fill="freeze" values="0; 0; 1; 1; 1; 0" keyTimes="0; 0.544554; 0.554455; 0.752474; 1; 1" keySplines="0 0 1 1; 0 0 1 1; 0 0 1 1; 0 0 1 1; 0 0 1 1" calcMode="spline" /><g id="i14" transform="translate(214.553,313.27) translate(-214.553,-313.27)"><g id="i14" transform="matrix(1,0,0,1,214.553,313.27)"><path fill="#ed509e" d="M2.603,-3.021C2.603,-3.021,0.568,-0.343,0.568,-0.343C0.568,-0.343,0.568,-0.3,0.568,-0.3C0.568,-0.3,3.803,-0.729,3.803,-0.729C3.803,-0.729,3.803,0.729,3.803,0.729C3.803,0.729,0.568,0.343,0.568,0.343C0.568,0.343,0.568,0.386,0.568,0.386C0.568,0.386,2.625,2.956,2.625,2.956C2.625,2.956,1.275,3.728,1.275,3.728C1.275,3.728,-0.011,0.729,-0.011,0.729C-0.011,0.729,-0.054,0.729,-0.054,0.729C-0.054,0.729,-1.446,3.749,-1.446,3.749C-1.446,3.749,-2.667,2.978,-2.667,2.978C-2.667,2.978,-0.632,0.364,-0.632,0.364C-0.632,0.364,-0.632,0.321,-0.632,0.321C-0.632,0.321,-3.803,0.729,-3.803,0.729C-3.803,0.729,-3.803,-0.729,-3.803,-0.729C-3.803,-0.729,-0.653,-0.321,-0.653,-0.321C-0.653,-0.321,-0.653,-0.364,-0.653,-0.364C-0.653,-0.364,-2.667,-2.978,-2.667,-2.978C-2.667,-2.978,-1.36,-3.728,-1.36,-3.728C-1.36,-3.728,-0.032,-0.75,-0.032,-0.75C-0.032,-0.75,0.011,-0.75,0.011,-0.75C0.011,-0.75,1.317,-3.749,1.317,-3.749C1.317,-3.749,2.603,-3.021,2.603,-3.021Z" /></g></g></g><g opacity="0"><animate repeatCount="indefinite" attributeName="opacity" dur="3.367s" begin="0s" fill="freeze" values="0; 0; 1; 1; 1; 0" keyTimes="0; 0.564356; 0.574257; 0.772276; 1; 1" keySplines="0 0 1 1; 0 0 1 1; 0 0 1 1; 0 0 1 1; 0 0 1 1" calcMode="spline" /><g id="i15" transform="translate(223.445,313.27) translate(-223.445,-313.27)"><g id="i15" transform="matrix(1,0,0,1,223.445,313.27)"><path fill="#ed509e" d="M2.603,-3.021C2.603,-3.021,0.568,-0.343,0.568,-0.343C0.568,-0.343,0.568,-0.3,0.568,-0.3C0.568,-0.3,3.803,-0.729,3.803,-0.729C3.803,-0.729,3.803,0.729,3.803,0.729C3.803,0.729,0.568,0.343,0.568,0.343C0.568,0.343,0.568,0.386,0.568,0.386C0.568,0.386,2.625,2.956,2.625,2.956C2.625,2.956,1.275,3.728,1.275,3.728C1.275,3.728,-0.011,0.729,-0.011,0.729C-0.011,0.729,-0.054,0.729,-0.054,0.729C-0.054,0.729,-1.446,3.749,-1.446,3.749C-1.446,3.749,-2.667,2.978,-2.667,2.978C-2.667,2.978,-0.632,0.364,-0.632,0.364C-0.632,0.364,-0.632,0.321,-0.632,0.321C-0.632,0.321,-3.803,0.729,-3.803,0.729C-3.803,0.729,-3.803,-0.729,-3.803,-0.729C-3.803,-0.729,-0.653,-0.321,-0.653,-0.321C-0.653,-0.321,-0.653,-0.364,-0.653,-0.364C-0.653,-0.364,-2.667,-2.978,-2.667,-2.978C-2.667,-2.978,-1.36,-3.728,-1.36,-3.728C-1.36,-3.728,-0.032,-0.75,-0.032,-0.75C-0.032,-0.75,0.011,-0.75,0.011,-0.75C0.011,-0.75,1.317,-3.749,1.317,-3.749C1.317,-3.749,2.603,-3.021,2.603,-3.021Z" /></g></g></g><g opacity="0"><animate repeatCount="indefinite" attributeName="opacity" dur="3.367s" begin="0s" fill="freeze" values="0; 0; 1; 1; 1; 0" keyTimes="0; 0.584158; 0.594059; 0.792078; 1; 1" keySplines="0 0 1 1; 0 0 1 1; 0 0 1 1; 0 0 1 1; 0 0 1 1" calcMode="spline" /><g id="i2" transform="translate(232.338,313.27) translate(-232.338,-313.27)"><g id="i2" transform="matrix(1,0,0,1,232.338,313.27)"><path fill="#ed509e" d="M2.603,-3.021C2.603,-3.021,0.568,-0.343,0.568,-0.343C0.568,-0.343,0.568,-0.3,0.568,-0.3C0.568,-0.3,3.803,-0.729,3.803,-0.729C3.803,-0.729,3.803,0.729,3.803,0.729C3.803,0.729,0.568,0.343,0.568,0.343C0.568,0.343,0.568,0.386,0.568,0.386C0.568,0.386,2.625,2.956,2.625,2.956C2.625,2.956,1.275,3.728,1.275,3.728C1.275,3.728,-0.011,0.729,-0.011,0.729C-0.011,0.729,-0.054,0.729,-0.054,0.729C-0.054,0.729,-1.446,3.749,-1.446,3.749C-1.446,3.749,-2.667,2.978,-2.667,2.978C-2.667,2.978,-0.632,0.364,-0.632,0.364C-0.632,0.364,-0.632,0.321,-0.632,0.321C-0.632,0.321,-3.803,0.729,-3.803,0.729C-3.803,0.729,-3.803,-0.729,-3.803,-0.729C-3.803,-0.729,-0.653,-0.321,-0.653,-0.321C-0.653,-0.321,-0.653,-0.364,-0.653,-0.364C-0.653,-0.364,-2.667,-2.978,-2.667,-2.978C-2.667,-2.978,-1.36,-3.728,-1.36,-3.728C-1.36,-3.728,-0.032,-0.75,-0.032,-0.75C-0.032,-0.75,0.011,-0.75,0.011,-0.75C0.011,-0.75,1.317,-3.749,1.317,-3.749C1.317,-3.749,2.603,-3.021,2.603,-3.021Z" /></g></g></g><g opacity="0"><animate repeatCount="indefinite" attributeName="opacity" dur="3.367s" begin="0s" fill="freeze" values="0; 0; 1; 1; 1; 0" keyTimes="0; 0.60396; 0.613861; 0.81188; 1; 1" keySplines="0 0 1 1; 0 0 1 1; 0 0 1 1; 0 0 1 1; 0 0 1 1" calcMode="spline" /><g id="i3" transform="translate(241.231,313.27) translate(-241.231,-313.27)"><g id="i3" transform="matrix(1,0,0,1,241.231,313.27)"><path fill="#ed509e" d="M2.603,-3.021C2.603,-3.021,0.568,-0.343,0.568,-0.343C0.568,-0.343,0.568,-0.3,0.568,-0.3C0.568,-0.3,3.802,-0.729,3.802,-0.729C3.802,-0.729,3.802,0.729,3.802,0.729C3.802,0.729,0.568,0.343,0.568,0.343C0.568,0.343,0.568,0.386,0.568,0.386C0.568,0.386,2.625,2.956,2.625,2.956C2.625,2.956,1.275,3.728,1.275,3.728C1.275,3.728,-0.01,0.729,-0.01,0.729C-0.01,0.729,-0.053,0.729,-0.053,0.729C-0.053,0.729,-1.446,3.749,-1.446,3.749C-1.446,3.749,-2.667,2.978,-2.667,2.978C-2.667,2.978,-0.632,0.364,-0.632,0.364C-0.632,0.364,-0.632,0.321,-0.632,0.321C-0.632,0.321,-3.802,0.729,-3.802,0.729C-3.802,0.729,-3.802,-0.729,-3.802,-0.729C-3.802,-0.729,-0.653,-0.321,-0.653,-0.321C-0.653,-0.321,-0.653,-0.364,-0.653,-0.364C-0.653,-0.364,-2.667,-2.978,-2.667,-2.978C-2.667,-2.978,-1.36,-3.728,-1.36,-3.728C-1.36,-3.728,-0.032,-0.75,-0.032,-0.75C-0.032,-0.75,0.011,-0.75,0.011,-0.75C0.011,-0.75,1.318,-3.749,1.318,-3.749C1.318,-3.749,2.603,-3.021,2.603,-3.021Z" /></g></g></g><g opacity="0"><animate repeatCount="indefinite" attributeName="opacity" dur="3.367s" begin="0s" fill="freeze" values="0; 0; 1; 1; 1; 0" keyTimes="0; 0.623762; 0.633663; 0.831682; 1; 1" keySplines="0 0 1 1; 0 0 1 1; 0 0 1 1; 0 0 1 1; 0 0 1 1" calcMode="spline" /><g id="i4" transform="translate(250.124,313.27) translate(-250.124,-313.27)"><g id="i4" transform="matrix(1,0,0,1,250.124,313.27)"><path fill="#ed509e" d="M2.603,-3.021C2.603,-3.021,0.567,-0.343,0.567,-0.343C0.567,-0.343,0.567,-0.3,0.567,-0.3C0.567,-0.3,3.803,-0.729,3.803,-0.729C3.803,-0.729,3.803,0.729,3.803,0.729C3.803,0.729,0.567,0.343,0.567,0.343C0.567,0.343,0.567,0.386,0.567,0.386C0.567,0.386,2.624,2.956,2.624,2.956C2.624,2.956,1.274,3.728,1.274,3.728C1.274,3.728,-0.011,0.729,-0.011,0.729C-0.011,0.729,-0.054,0.729,-0.054,0.729C-0.054,0.729,-1.446,3.749,-1.446,3.749C-1.446,3.749,-2.667,2.978,-2.667,2.978C-2.667,2.978,-0.632,0.364,-0.632,0.364C-0.632,0.364,-0.632,0.321,-0.632,0.321C-0.632,0.321,-3.803,0.729,-3.803,0.729C-3.803,0.729,-3.803,-0.729,-3.803,-0.729C-3.803,-0.729,-0.653,-0.321,-0.653,-0.321C-0.653,-0.321,-0.653,-0.364,-0.653,-0.364C-0.653,-0.364,-2.667,-2.978,-2.667,-2.978C-2.667,-2.978,-1.36,-3.728,-1.36,-3.728C-1.36,-3.728,-0.032,-0.75,-0.032,-0.75C-0.032,-0.75,0.011,-0.75,0.011,-0.75C0.011,-0.75,1.317,-3.749,1.317,-3.749C1.317,-3.749,2.603,-3.021,2.603,-3.021Z" /></g></g></g></g></svg>